<mxfile modified="2023-04-14T21:47:21.561Z" host="app.diagrams.net" agent="Mozilla/5.0 (Macintosh; Intel Mac OS X 10_15_7) AppleWebKit/537.36 (KHTML, like Gecko) Chrome/111.0.0.0 Safari/537.36" etag="BC1b4Aw10e10lrHMQPBM" version="21.1.8" type="github">
  <diagram id="eIo0H9kK7ql945uVP1NC" name="Page-1">
    <mxGraphModel dx="1630" dy="636" grid="1" gridSize="10" guides="1" tooltips="1" connect="1" arrows="1" fold="1" page="1" pageScale="1" pageWidth="827" pageHeight="1169" math="0" shadow="0">
      <root>
        <mxCell id="0" />
        <mxCell id="1" parent="0" />
        <mxCell id="T21aQVliIUyU_0U-5JRh-61" value="" style="edgeStyle=orthogonalEdgeStyle;fontSize=12;html=1;endArrow=classicThin;endFill=1;rounded=0;strokeColor=#0076BE;strokeWidth=2;startArrow=classicThin;startFill=1;" parent="1" source="T21aQVliIUyU_0U-5JRh-18" target="T21aQVliIUyU_0U-5JRh-17" edge="1">
          <mxGeometry width="60" height="60" relative="1" as="geometry">
            <mxPoint x="817.5" y="603" as="sourcePoint" />
            <mxPoint x="817.5" y="493" as="targetPoint" />
          </mxGeometry>
        </mxCell>
        <mxCell id="zA0Id_x8hM4ihw0cVCXu-51" value="" style="edgeStyle=orthogonalEdgeStyle;fontSize=12;html=1;endArrow=classicThin;endFill=1;rounded=0;strokeColor=#0076BE;strokeWidth=2;startArrow=classicThin;startFill=1;" edge="1" parent="1" source="T21aQVliIUyU_0U-5JRh-4" target="zA0Id_x8hM4ihw0cVCXu-32">
          <mxGeometry relative="1" as="geometry" />
        </mxCell>
        <mxCell id="T21aQVliIUyU_0U-5JRh-42" value="" style="aspect=fixed;perimeter=ellipsePerimeter;html=1;align=center;shadow=0;dashed=0;fontColor=#4277BB;labelBackgroundColor=#ffffff;fontSize=12;spacingTop=0;image;image=img/lib/ibm/blockchain/key_management.svg;rounded=0;" parent="1" vertex="1">
          <mxGeometry x="1080" y="486" width="22.8" height="22.8" as="geometry" />
        </mxCell>
        <mxCell id="T21aQVliIUyU_0U-5JRh-39" value="" style="aspect=fixed;perimeter=ellipsePerimeter;html=1;align=center;shadow=0;dashed=0;fontColor=#4277BB;labelBackgroundColor=#ffffff;fontSize=12;spacingTop=0;image;image=img/lib/ibm/blockchain/key_management.svg;rounded=0;" parent="1" vertex="1">
          <mxGeometry x="926" y="408" width="22.8" height="22.8" as="geometry" />
        </mxCell>
        <mxCell id="T21aQVliIUyU_0U-5JRh-40" value="" style="aspect=fixed;perimeter=ellipsePerimeter;html=1;align=center;shadow=0;dashed=0;fontColor=#4277BB;labelBackgroundColor=#ffffff;fontSize=12;spacingTop=0;image;image=img/lib/ibm/blockchain/key_management.svg;rounded=0;" parent="1" vertex="1">
          <mxGeometry x="1080" y="306.5" width="22.8" height="22.8" as="geometry" />
        </mxCell>
        <mxCell id="T21aQVliIUyU_0U-5JRh-41" value="" style="aspect=fixed;perimeter=ellipsePerimeter;html=1;align=center;shadow=0;dashed=0;fontColor=#4277BB;labelBackgroundColor=#ffffff;fontSize=12;spacingTop=0;image;image=img/lib/ibm/blockchain/key_management.svg;rounded=0;" parent="1" vertex="1">
          <mxGeometry x="1175" y="401.5" width="22.8" height="22.8" as="geometry" />
        </mxCell>
        <mxCell id="T21aQVliIUyU_0U-5JRh-43" value="" style="ellipse;whiteSpace=wrap;html=1;aspect=fixed;rounded=0;fontSize=7;align=center;fillColor=none;strokeWidth=7;strokeColor=#6E6F72;spacingTop=0;" parent="1" vertex="1">
          <mxGeometry x="970" y="348" width="190" height="190" as="geometry" />
        </mxCell>
        <mxCell id="T21aQVliIUyU_0U-5JRh-17" value="Trusted&lt;br&gt;External&lt;br&gt;Services (eg. Chainlink)" style="aspect=fixed;perimeter=ellipsePerimeter;html=1;align=center;shadow=0;dashed=0;fontColor=#4277BB;labelBackgroundColor=#ffffff;fontSize=12;spacingTop=0;image;image=img/lib/ibm/applications/mobile_app.svg;" parent="1" vertex="1">
          <mxGeometry x="1035" y="163" width="60" height="60" as="geometry" />
        </mxCell>
        <mxCell id="T21aQVliIUyU_0U-5JRh-18" value="NODE J" style="aspect=fixed;perimeter=ellipsePerimeter;html=1;align=center;shadow=0;dashed=0;fontColor=#4277BB;labelBackgroundColor=#ffffff;fontSize=12;spacingTop=0;image;image=img/lib/ibm/blockchain/node.svg;" parent="1" vertex="1">
          <mxGeometry x="1035" y="318" width="60" height="60" as="geometry" />
        </mxCell>
        <mxCell id="T21aQVliIUyU_0U-5JRh-19" value="NODE I" style="aspect=fixed;perimeter=ellipsePerimeter;html=1;align=center;shadow=0;dashed=0;fontColor=#4277BB;labelBackgroundColor=#ffffff;fontSize=12;spacingTop=0;image;image=img/lib/ibm/blockchain/node.svg;" parent="1" vertex="1">
          <mxGeometry x="940" y="413" width="60" height="60" as="geometry" />
        </mxCell>
        <mxCell id="T21aQVliIUyU_0U-5JRh-20" value="NODE K" style="aspect=fixed;perimeter=ellipsePerimeter;html=1;align=center;shadow=0;dashed=0;fontColor=#4277BB;labelBackgroundColor=#ffffff;fontSize=12;spacingTop=0;image;image=img/lib/ibm/blockchain/node.svg;" parent="1" vertex="1">
          <mxGeometry x="1130.5" y="413.00000000000006" width="60" height="60" as="geometry" />
        </mxCell>
        <mxCell id="T21aQVliIUyU_0U-5JRh-21" value="NODE N" style="aspect=fixed;perimeter=ellipsePerimeter;html=1;align=center;shadow=0;dashed=0;fontColor=#4277BB;labelBackgroundColor=#ffffff;fontSize=12;spacingTop=0;image;image=img/lib/ibm/blockchain/node.svg;" parent="1" vertex="1">
          <mxGeometry x="1035" y="498" width="60" height="60" as="geometry" />
        </mxCell>
        <mxCell id="T21aQVliIUyU_0U-5JRh-55" value="" style="edgeStyle=orthogonalEdgeStyle;fontSize=12;html=1;endArrow=classicThin;endFill=1;rounded=0;strokeColor=#0076BE;strokeWidth=2;startArrow=none;startFill=0;entryX=1;entryY=0.5;entryDx=0;entryDy=0;" parent="1" source="T21aQVliIUyU_0U-5JRh-19" edge="1">
          <mxGeometry width="60" height="60" relative="1" as="geometry">
            <mxPoint x="546.5" y="593" as="sourcePoint" />
            <mxPoint x="785.9999999999732" y="253" as="targetPoint" />
            <Array as="points">
              <mxPoint x="953" y="253" />
            </Array>
          </mxGeometry>
        </mxCell>
        <mxCell id="T21aQVliIUyU_0U-5JRh-60" value="" style="edgeStyle=orthogonalEdgeStyle;fontSize=12;html=1;endArrow=classicThin;endFill=1;rounded=0;strokeColor=#0076BE;strokeWidth=2;startArrow=classicThin;startFill=1;" parent="1" source="T21aQVliIUyU_0U-5JRh-19" target="T21aQVliIUyU_0U-5JRh-17" edge="1">
          <mxGeometry width="60" height="60" relative="1" as="geometry">
            <mxPoint x="807.5" y="593" as="sourcePoint" />
            <mxPoint x="807.5" y="483" as="targetPoint" />
            <Array as="points">
              <mxPoint x="969.5" y="193" />
            </Array>
          </mxGeometry>
        </mxCell>
        <mxCell id="T21aQVliIUyU_0U-5JRh-62" value="" style="edgeStyle=orthogonalEdgeStyle;fontSize=12;html=1;endArrow=classicThin;endFill=1;rounded=0;strokeColor=#0076BE;strokeWidth=2;startArrow=classicThin;startFill=1;" parent="1" source="T21aQVliIUyU_0U-5JRh-19" target="T21aQVliIUyU_0U-5JRh-15" edge="1">
          <mxGeometry width="60" height="60" relative="1" as="geometry">
            <mxPoint x="961.5" y="613" as="sourcePoint" />
            <mxPoint x="961.5" y="503" as="targetPoint" />
          </mxGeometry>
        </mxCell>
        <mxCell id="T21aQVliIUyU_0U-5JRh-35" value="" style="verticalLabelPosition=bottom;verticalAlign=top;html=1;shape=mxgraph.basic.obtuse_triangle;dx=0.34;rounded=0;flipH=1;strokeColor=none;fillColor=#939598;spacingTop=0;" parent="1" vertex="1">
          <mxGeometry x="960" y="553" width="82.5" height="87" as="geometry" />
        </mxCell>
        <mxCell id="T21aQVliIUyU_0U-5JRh-36" value="Web Application" style="swimlane;fontStyle=0;horizontal=1;collapsible=0;startSize=30;swimlaneLine=0;swimlaneFillColor=none;fillColor=none;rounded=0;whiteSpace=wrap;html=1;absoluteArcSize=1;arcSize=12;strokeColor=#417CB9;fontColor=#417CB9;verticalAlign=top;align=left;spacingLeft=5;dashed=0;strokeWidth=2;" parent="1" vertex="1">
          <mxGeometry x="216.5" y="160" width="373.5" height="280" as="geometry" />
        </mxCell>
        <mxCell id="T21aQVliIUyU_0U-5JRh-45" value="" style="edgeStyle=orthogonalEdgeStyle;fontSize=12;html=1;endArrow=classicThin;endFill=1;rounded=0;strokeColor=#0076BE;strokeWidth=2;startArrow=classicThin;startFill=1;exitX=1;exitY=0.75;exitDx=0;exitDy=0;entryX=0;entryY=0.75;entryDx=0;entryDy=0;" parent="T21aQVliIUyU_0U-5JRh-36" source="T21aQVliIUyU_0U-5JRh-2" target="T21aQVliIUyU_0U-5JRh-4" edge="1">
          <mxGeometry width="60" height="60" relative="1" as="geometry">
            <mxPoint x="-80" y="340" as="sourcePoint" />
            <mxPoint x="-20" y="280" as="targetPoint" />
          </mxGeometry>
        </mxCell>
        <mxCell id="T21aQVliIUyU_0U-5JRh-2" value="User" style="aspect=fixed;perimeter=ellipsePerimeter;html=1;align=center;shadow=0;dashed=0;fontColor=#4277BB;labelBackgroundColor=#ffffff;fontSize=12;spacingTop=0;image;image=img/lib/ibm/blockchain/blockchain_developer.svg;" parent="T21aQVliIUyU_0U-5JRh-36" vertex="1">
          <mxGeometry x="30" y="143" width="60" height="60" as="geometry" />
        </mxCell>
        <mxCell id="T21aQVliIUyU_0U-5JRh-4" value="Browser" style="aspect=fixed;perimeter=ellipsePerimeter;html=1;align=center;shadow=0;dashed=0;fontColor=#4277BB;labelBackgroundColor=#ffffff;fontSize=12;spacingTop=0;image;image=img/lib/ibm/users/browser.svg;" parent="T21aQVliIUyU_0U-5JRh-36" vertex="1">
          <mxGeometry x="160" y="143" width="60" height="60" as="geometry" />
        </mxCell>
        <mxCell id="zA0Id_x8hM4ihw0cVCXu-45" value="" style="edgeStyle=orthogonalEdgeStyle;fontSize=12;html=1;endArrow=classicThin;endFill=1;rounded=0;strokeColor=#0076BE;strokeWidth=2;startArrow=classicThin;startFill=1;" edge="1" parent="T21aQVliIUyU_0U-5JRh-36" source="T21aQVliIUyU_0U-5JRh-1" target="T21aQVliIUyU_0U-5JRh-4">
          <mxGeometry relative="1" as="geometry" />
        </mxCell>
        <mxCell id="T21aQVliIUyU_0U-5JRh-1" value="Metamask" style="aspect=fixed;perimeter=ellipsePerimeter;html=1;align=center;shadow=0;dashed=0;fontColor=#4277BB;labelBackgroundColor=#ffffff;fontSize=12;spacingTop=0;image;image=img/lib/ibm/blockchain/wallet.svg;" parent="T21aQVliIUyU_0U-5JRh-36" vertex="1">
          <mxGeometry x="160" y="36" width="60" height="60" as="geometry" />
        </mxCell>
        <mxCell id="T21aQVliIUyU_0U-5JRh-37" value="Blockchain Application" style="swimlane;fontStyle=0;horizontal=1;collapsible=0;startSize=28;swimlaneLine=0;swimlaneFillColor=none;fillColor=none;rounded=0;whiteSpace=wrap;html=1;absoluteArcSize=1;arcSize=12;strokeColor=#417CB9;fontColor=#417CB9;verticalAlign=top;align=right;spacingLeft=5;dashed=0;strokeWidth=2;" parent="1" vertex="1">
          <mxGeometry x="590" y="329" width="310" height="300" as="geometry" />
        </mxCell>
        <mxCell id="zA0Id_x8hM4ihw0cVCXu-37" value="" style="edgeStyle=orthogonalEdgeStyle;fontSize=12;html=1;endArrow=classicThin;endFill=1;rounded=0;strokeColor=#0076BE;strokeWidth=2;startArrow=classicThin;startFill=1;" edge="1" parent="T21aQVliIUyU_0U-5JRh-37" source="T21aQVliIUyU_0U-5JRh-11" target="T21aQVliIUyU_0U-5JRh-15">
          <mxGeometry relative="1" as="geometry" />
        </mxCell>
        <mxCell id="zA0Id_x8hM4ihw0cVCXu-49" value="" style="edgeStyle=orthogonalEdgeStyle;fontSize=12;html=1;endArrow=classicThin;endFill=1;rounded=0;strokeColor=#0076BE;strokeWidth=2;startArrow=classicThin;startFill=1;" edge="1" parent="T21aQVliIUyU_0U-5JRh-37" source="T21aQVliIUyU_0U-5JRh-11" target="T21aQVliIUyU_0U-5JRh-9">
          <mxGeometry relative="1" as="geometry">
            <Array as="points">
              <mxPoint x="110" y="181" />
              <mxPoint x="110" y="181" />
            </Array>
          </mxGeometry>
        </mxCell>
        <mxCell id="T21aQVliIUyU_0U-5JRh-11" value="Application &lt;br&gt;Logic" style="aspect=fixed;perimeter=ellipsePerimeter;html=1;align=center;shadow=0;dashed=0;fontColor=#4277BB;labelBackgroundColor=#ffffff;fontSize=12;spacingTop=0;image;image=img/lib/ibm/applications/application_logic.svg;" parent="T21aQVliIUyU_0U-5JRh-37" vertex="1">
          <mxGeometry x="80" y="84" width="60" height="60" as="geometry" />
        </mxCell>
        <mxCell id="zA0Id_x8hM4ihw0cVCXu-50" value="" style="edgeStyle=orthogonalEdgeStyle;fontSize=12;html=1;endArrow=classicThin;endFill=1;rounded=0;strokeColor=#0076BE;strokeWidth=2;startArrow=classicThin;startFill=1;" edge="1" parent="T21aQVliIUyU_0U-5JRh-37" source="T21aQVliIUyU_0U-5JRh-15" target="T21aQVliIUyU_0U-5JRh-14">
          <mxGeometry relative="1" as="geometry" />
        </mxCell>
        <mxCell id="T21aQVliIUyU_0U-5JRh-15" value="Transaction &lt;br&gt;Manager" style="aspect=fixed;perimeter=ellipsePerimeter;html=1;align=center;shadow=0;dashed=0;fontColor=#4277BB;labelBackgroundColor=#ffffff;fontSize=12;spacingTop=0;image;image=img/lib/ibm/blockchain/transaction_manager.svg;" parent="T21aQVliIUyU_0U-5JRh-37" vertex="1">
          <mxGeometry x="210" y="84" width="60" height="60" as="geometry" />
        </mxCell>
        <mxCell id="T21aQVliIUyU_0U-5JRh-69" value="4" style="ellipse;whiteSpace=wrap;html=1;aspect=fixed;rounded=0;strokeColor=none;strokeWidth=7;fillColor=#939598;fontSize=14;align=center;fontColor=#FFFFFF;" parent="T21aQVliIUyU_0U-5JRh-37" vertex="1">
          <mxGeometry x="130" y="170" width="21" height="21" as="geometry" />
        </mxCell>
        <mxCell id="T21aQVliIUyU_0U-5JRh-9" value="Identity &lt;br&gt;Management" style="aspect=fixed;perimeter=ellipsePerimeter;html=1;align=center;shadow=0;dashed=0;fontColor=#4277BB;labelBackgroundColor=#ffffff;fontSize=12;spacingTop=0;image;image=img/lib/ibm/blockchain/identity_access_manager.svg;" parent="T21aQVliIUyU_0U-5JRh-37" vertex="1">
          <mxGeometry x="80" y="194" width="60" height="60" as="geometry" />
        </mxCell>
        <mxCell id="T21aQVliIUyU_0U-5JRh-14" value="Transaction&lt;br&gt;Authentication" style="aspect=fixed;perimeter=ellipsePerimeter;html=1;align=center;shadow=0;dashed=0;fontColor=#4277BB;labelBackgroundColor=#ffffff;fontSize=12;spacingTop=0;image;image=img/lib/ibm/blockchain/wallet.svg;" parent="T21aQVliIUyU_0U-5JRh-37" vertex="1">
          <mxGeometry x="210" y="194" width="60" height="60" as="geometry" />
        </mxCell>
        <mxCell id="T21aQVliIUyU_0U-5JRh-7" value="ALCHEMY&lt;br&gt;JSON RPC API" style="aspect=fixed;perimeter=ellipsePerimeter;html=1;align=center;shadow=0;dashed=0;fontColor=#4277BB;labelBackgroundColor=#ffffff;fontSize=12;spacingTop=0;image;image=img/lib/ibm/infrastructure/edge_services.svg;" parent="T21aQVliIUyU_0U-5JRh-37" vertex="1">
          <mxGeometry x="-30" y="11" width="60" height="60" as="geometry" />
        </mxCell>
        <mxCell id="zA0Id_x8hM4ihw0cVCXu-36" style="edgeStyle=orthogonalEdgeStyle;fontSize=12;html=1;endArrow=classicThin;endFill=1;rounded=0;strokeColor=#0076BE;strokeWidth=2;startArrow=classicThin;startFill=1;" edge="1" parent="T21aQVliIUyU_0U-5JRh-37" source="T21aQVliIUyU_0U-5JRh-7" target="T21aQVliIUyU_0U-5JRh-11">
          <mxGeometry relative="1" as="geometry" />
        </mxCell>
        <mxCell id="T21aQVliIUyU_0U-5JRh-38" value="" style="group;fontSize=7;" parent="1" vertex="1" connectable="0">
          <mxGeometry x="780" y="640" width="300" height="160" as="geometry" />
        </mxCell>
        <mxCell id="T21aQVliIUyU_0U-5JRh-26" value="MEMBERSHIP" style="aspect=fixed;perimeter=ellipsePerimeter;html=1;align=center;shadow=0;dashed=0;fontColor=#4277BB;labelBackgroundColor=#ffffff;fontSize=7;spacingTop=0;image;image=img/lib/ibm/blockchain/membership.svg;" parent="T21aQVliIUyU_0U-5JRh-38" vertex="1">
          <mxGeometry x="23.68421052631579" y="13.91304347826087" width="41.73913043478261" height="41.73913043478261" as="geometry" />
        </mxCell>
        <mxCell id="T21aQVliIUyU_0U-5JRh-27" value="CONSENSUS" style="aspect=fixed;perimeter=ellipsePerimeter;html=1;align=center;shadow=0;dashed=0;fontColor=#4277BB;labelBackgroundColor=#ffffff;fontSize=7;spacingTop=0;image;image=img/lib/ibm/blockchain/consensus.svg;" parent="T21aQVliIUyU_0U-5JRh-38" vertex="1">
          <mxGeometry x="94.73684210526316" y="13.91304347826087" width="41.73913043478261" height="41.73913043478261" as="geometry" />
        </mxCell>
        <mxCell id="T21aQVliIUyU_0U-5JRh-28" value="LEDGER" style="aspect=fixed;perimeter=ellipsePerimeter;html=1;align=center;shadow=0;dashed=0;fontColor=#4277BB;labelBackgroundColor=#ffffff;fontSize=7;spacingTop=0;image;image=img/lib/ibm/blockchain/ledger.svg;" parent="T21aQVliIUyU_0U-5JRh-38" vertex="1">
          <mxGeometry x="165.78947368421052" y="13.91304347826087" width="41.73913043478261" height="41.73913043478261" as="geometry" />
        </mxCell>
        <mxCell id="T21aQVliIUyU_0U-5JRh-29" value="SMART&lt;br style=&quot;font-size: 7px;&quot;&gt;CONTRACT&lt;br style=&quot;font-size: 7px;&quot;&gt;" style="aspect=fixed;perimeter=ellipsePerimeter;html=1;align=center;shadow=0;dashed=0;fontColor=#4277BB;labelBackgroundColor=#ffffff;fontSize=7;spacingTop=0;image;image=img/lib/ibm/blockchain/smart_contract.svg;" parent="T21aQVliIUyU_0U-5JRh-38" vertex="1">
          <mxGeometry x="236.8421052631579" y="13.91304347826087" width="41.73913043478261" height="41.73913043478261" as="geometry" />
        </mxCell>
        <mxCell id="T21aQVliIUyU_0U-5JRh-30" value="EVENTS" style="aspect=fixed;perimeter=ellipsePerimeter;html=1;align=center;shadow=0;dashed=0;fontColor=#4277BB;labelBackgroundColor=#ffffff;fontSize=7;spacingTop=0;image;image=img/lib/ibm/blockchain/event.svg;" parent="T21aQVliIUyU_0U-5JRh-38" vertex="1">
          <mxGeometry x="23.68421052631579" y="90.43478260869566" width="41.73913043478261" height="41.73913043478261" as="geometry" />
        </mxCell>
        <mxCell id="T21aQVliIUyU_0U-5JRh-31" value="COMMUNICATION" style="aspect=fixed;perimeter=ellipsePerimeter;html=1;align=center;shadow=0;dashed=0;fontColor=#4277BB;labelBackgroundColor=#ffffff;fontSize=7;spacingTop=0;image;image=img/lib/ibm/blockchain/communication.svg;" parent="T21aQVliIUyU_0U-5JRh-38" vertex="1">
          <mxGeometry x="94.73684210526316" y="90.43478260869566" width="41.73913043478261" height="41.73913043478261" as="geometry" />
        </mxCell>
        <mxCell id="T21aQVliIUyU_0U-5JRh-32" value="DATA STORE" style="aspect=fixed;perimeter=ellipsePerimeter;html=1;align=center;shadow=0;dashed=0;fontColor=#4277BB;labelBackgroundColor=#ffffff;fontSize=7;spacingTop=0;image;image=img/lib/ibm/data/data_services.svg;" parent="T21aQVliIUyU_0U-5JRh-38" vertex="1">
          <mxGeometry x="165.78947368421052" y="90.43478260869566" width="41.73913043478261" height="41.73913043478261" as="geometry" />
        </mxCell>
        <mxCell id="T21aQVliIUyU_0U-5JRh-33" value="API" style="aspect=fixed;perimeter=ellipsePerimeter;html=1;align=center;shadow=0;dashed=0;fontColor=#4277BB;labelBackgroundColor=#ffffff;fontSize=7;spacingTop=0;image;image=img/lib/ibm/applications/application_logic.svg;" parent="T21aQVliIUyU_0U-5JRh-38" vertex="1">
          <mxGeometry x="236.8421052631579" y="90.43478260869566" width="41.73913043478261" height="41.73913043478261" as="geometry" />
        </mxCell>
        <mxCell id="T21aQVliIUyU_0U-5JRh-34" value="" style="swimlane;fontStyle=0;horizontal=1;collapsible=0;startSize=28;swimlaneLine=0;swimlaneFillColor=none;fillColor=none;rounded=0;whiteSpace=wrap;html=1;absoluteArcSize=1;arcSize=12;strokeColor=#417CB9;fontColor=#417CB9;verticalAlign=top;align=left;spacingLeft=5;dashed=0;strokeWidth=2;fontSize=7;spacingTop=0;" parent="T21aQVliIUyU_0U-5JRh-38" vertex="1">
          <mxGeometry width="300" height="160" as="geometry" />
        </mxCell>
        <mxCell id="T21aQVliIUyU_0U-5JRh-86" value="Application" style="rounded=0;html=1;shadow=0;labelBackgroundColor=none;strokeColor=none;strokeWidth=2;fillColor=#EBC01A;gradientColor=none;fontSize=12;fontColor=#4277BB;align=left;labelPosition=right;verticalLabelPosition=middle;verticalAlign=middle;spacingLeft=5;" parent="1" vertex="1">
          <mxGeometry x="216.5" y="690.12" width="20" height="10" as="geometry" />
        </mxCell>
        <mxCell id="T21aQVliIUyU_0U-5JRh-87" value="Infrastructure services" style="rounded=0;html=1;shadow=0;labelBackgroundColor=none;strokeColor=none;strokeWidth=2;fillColor=#8DC642;gradientColor=none;fontSize=12;fontColor=#4277BB;align=left;labelPosition=right;verticalLabelPosition=middle;verticalAlign=middle;spacingLeft=5;" parent="1" vertex="1">
          <mxGeometry x="216.5" y="710.12" width="20" height="10" as="geometry" />
        </mxCell>
        <mxCell id="T21aQVliIUyU_0U-5JRh-88" value="Management" style="rounded=0;html=1;shadow=0;labelBackgroundColor=none;strokeColor=none;strokeWidth=2;fillColor=#0DB39D;gradientColor=none;fontSize=12;fontColor=#4277BB;align=left;labelPosition=right;verticalLabelPosition=middle;verticalAlign=middle;spacingLeft=5;" parent="1" vertex="1">
          <mxGeometry x="216.5" y="730.12" width="20" height="10" as="geometry" />
        </mxCell>
        <mxCell id="T21aQVliIUyU_0U-5JRh-89" value="Data oriented services" style="rounded=0;html=1;shadow=0;labelBackgroundColor=none;strokeColor=none;strokeWidth=2;fillColor=#335D81;gradientColor=none;fontSize=12;fontColor=#4277BB;align=left;labelPosition=right;verticalLabelPosition=middle;verticalAlign=middle;spacingLeft=5;" parent="1" vertex="1">
          <mxGeometry x="376.25" y="669.62" width="20" height="10" as="geometry" />
        </mxCell>
        <mxCell id="T21aQVliIUyU_0U-5JRh-90" value="DevOps" style="rounded=0;html=1;shadow=0;labelBackgroundColor=none;strokeColor=none;strokeWidth=2;fillColor=#F3713C;gradientColor=none;fontSize=12;fontColor=#4277BB;align=left;labelPosition=right;verticalLabelPosition=middle;verticalAlign=middle;spacingLeft=5;" parent="1" vertex="1">
          <mxGeometry x="376.25" y="689.62" width="20" height="10" as="geometry" />
        </mxCell>
        <mxCell id="T21aQVliIUyU_0U-5JRh-91" value="Blockchain services" style="rounded=0;html=1;shadow=0;labelBackgroundColor=none;strokeColor=none;strokeWidth=2;fillColor=#A72870;gradientColor=none;fontSize=12;fontColor=#4277BB;align=left;labelPosition=right;verticalLabelPosition=middle;verticalAlign=middle;spacingLeft=5;" parent="1" vertex="1">
          <mxGeometry x="376.25" y="729.62" width="20" height="10" as="geometry" />
        </mxCell>
        <mxCell id="T21aQVliIUyU_0U-5JRh-92" value="Security" style="rounded=0;html=1;shadow=0;labelBackgroundColor=none;strokeColor=none;strokeWidth=2;fillColor=#E52134;gradientColor=none;fontSize=12;fontColor=#4277BB;align=left;labelPosition=right;verticalLabelPosition=middle;verticalAlign=middle;spacingLeft=5;" parent="1" vertex="1">
          <mxGeometry x="376.25" y="709.62" width="20" height="10" as="geometry" />
        </mxCell>
        <mxCell id="T21aQVliIUyU_0U-5JRh-93" value="LEGEND" style="text;html=1;align=left;verticalAlign=middle;fontColor=#4277BB;shadow=0;dashed=0;strokeColor=none;fillColor=none;labelBackgroundColor=none;fontStyle=1;fontSize=14;spacingLeft=0;" parent="1" vertex="1">
          <mxGeometry x="216.5" y="639.62" width="150" height="20" as="geometry" />
        </mxCell>
        <mxCell id="T21aQVliIUyU_0U-5JRh-94" value="Actors" style="rounded=0;html=1;shadow=0;labelBackgroundColor=none;strokeColor=none;strokeWidth=2;fillColor=#C59435;gradientColor=none;fontSize=12;fontColor=#4277BB;align=left;labelPosition=right;verticalLabelPosition=middle;verticalAlign=middle;spacingLeft=5;" parent="1" vertex="1">
          <mxGeometry x="216.5" y="669.62" width="20" height="10" as="geometry" />
        </mxCell>
        <mxCell id="T21aQVliIUyU_0U-5JRh-95" value="" style="ellipse;whiteSpace=wrap;html=1;aspect=fixed;rounded=0;strokeColor=none;strokeWidth=7;fillColor=#A71E6C;fontSize=14;fontColor=#FFFFFF;align=center;" parent="1" vertex="1">
          <mxGeometry x="1102.5" y="538" width="8" height="8" as="geometry" />
        </mxCell>
        <mxCell id="T21aQVliIUyU_0U-5JRh-96" value="" style="ellipse;whiteSpace=wrap;html=1;aspect=fixed;rounded=0;strokeColor=none;strokeWidth=7;fillColor=#A71E6C;fontSize=14;fontColor=#FFFFFF;align=center;" parent="1" vertex="1">
          <mxGeometry x="1123.5" y="528.5" width="8" height="8" as="geometry" />
        </mxCell>
        <mxCell id="T21aQVliIUyU_0U-5JRh-97" value="" style="ellipse;whiteSpace=wrap;html=1;aspect=fixed;rounded=0;strokeColor=none;strokeWidth=7;fillColor=#A71E6C;fontSize=14;fontColor=#FFFFFF;align=center;" parent="1" vertex="1">
          <mxGeometry x="1154.5" y="497.5" width="8" height="8" as="geometry" />
        </mxCell>
        <mxCell id="T21aQVliIUyU_0U-5JRh-98" value="" style="ellipse;whiteSpace=wrap;html=1;aspect=fixed;rounded=0;strokeColor=none;strokeWidth=7;fillColor=#A71E6C;fontSize=14;fontColor=#FFFFFF;align=center;" parent="1" vertex="1">
          <mxGeometry x="1141.5" y="514" width="8" height="8" as="geometry" />
        </mxCell>
        <mxCell id="T21aQVliIUyU_0U-5JRh-99" value="" style="ellipse;whiteSpace=wrap;html=1;aspect=fixed;rounded=0;strokeColor=none;strokeWidth=7;fillColor=#A71E6C;fontSize=14;fontColor=#FFFFFF;align=center;" parent="1" vertex="1">
          <mxGeometry x="1022.5" y="539" width="8" height="8" as="geometry" />
        </mxCell>
        <mxCell id="T21aQVliIUyU_0U-5JRh-100" value="" style="ellipse;whiteSpace=wrap;html=1;aspect=fixed;rounded=0;strokeColor=none;strokeWidth=7;fillColor=#A71E6C;fontSize=14;fontColor=#FFFFFF;align=center;" parent="1" vertex="1">
          <mxGeometry x="1000.5" y="530" width="8" height="8" as="geometry" />
        </mxCell>
        <mxCell id="T21aQVliIUyU_0U-5JRh-101" value="" style="ellipse;whiteSpace=wrap;html=1;aspect=fixed;rounded=0;strokeColor=none;strokeWidth=7;fillColor=#A71E6C;fontSize=14;fontColor=#FFFFFF;align=center;" parent="1" vertex="1">
          <mxGeometry x="981.5" y="513" width="8" height="8" as="geometry" />
        </mxCell>
        <mxCell id="T21aQVliIUyU_0U-5JRh-102" value="" style="ellipse;whiteSpace=wrap;html=1;aspect=fixed;rounded=0;strokeColor=none;strokeWidth=7;fillColor=#A71E6C;fontSize=14;fontColor=#FFFFFF;align=center;" parent="1" vertex="1">
          <mxGeometry x="966.5" y="496" width="8" height="8" as="geometry" />
        </mxCell>
        <mxCell id="T21aQVliIUyU_0U-5JRh-103" value="" style="ellipse;whiteSpace=wrap;html=1;aspect=fixed;rounded=0;strokeColor=none;strokeWidth=7;fillColor=#A71E6C;fontSize=14;fontColor=#FFFFFF;align=center;" parent="1" vertex="1">
          <mxGeometry x="1102.5" y="335" width="8" height="8" as="geometry" />
        </mxCell>
        <mxCell id="T21aQVliIUyU_0U-5JRh-104" value="" style="ellipse;whiteSpace=wrap;html=1;aspect=fixed;rounded=0;strokeColor=none;strokeWidth=7;fillColor=#A71E6C;fontSize=14;fontColor=#FFFFFF;align=center;" parent="1" vertex="1">
          <mxGeometry x="1126.5" y="349" width="8" height="8" as="geometry" />
        </mxCell>
        <mxCell id="T21aQVliIUyU_0U-5JRh-105" value="" style="ellipse;whiteSpace=wrap;html=1;aspect=fixed;rounded=0;strokeColor=none;strokeWidth=7;fillColor=#A71E6C;fontSize=14;fontColor=#FFFFFF;align=center;" parent="1" vertex="1">
          <mxGeometry x="1146.5" y="368" width="8" height="8" as="geometry" />
        </mxCell>
        <mxCell id="T21aQVliIUyU_0U-5JRh-106" value="" style="ellipse;whiteSpace=wrap;html=1;aspect=fixed;rounded=0;strokeColor=none;strokeWidth=7;fillColor=#A71E6C;fontSize=14;fontColor=#FFFFFF;align=center;" parent="1" vertex="1">
          <mxGeometry x="1161.5" y="390" width="8" height="8" as="geometry" />
        </mxCell>
        <mxCell id="T21aQVliIUyU_0U-5JRh-107" value="" style="ellipse;whiteSpace=wrap;html=1;aspect=fixed;rounded=0;strokeColor=none;strokeWidth=7;fillColor=#A71E6C;fontSize=14;fontColor=#FFFFFF;align=center;" parent="1" vertex="1">
          <mxGeometry x="1019.5" y="339" width="8" height="8" as="geometry" />
        </mxCell>
        <mxCell id="T21aQVliIUyU_0U-5JRh-108" value="" style="ellipse;whiteSpace=wrap;html=1;aspect=fixed;rounded=0;strokeColor=none;strokeWidth=7;fillColor=#A71E6C;fontSize=14;fontColor=#FFFFFF;align=center;" parent="1" vertex="1">
          <mxGeometry x="995.5" y="352" width="8" height="8" as="geometry" />
        </mxCell>
        <mxCell id="T21aQVliIUyU_0U-5JRh-109" value="" style="ellipse;whiteSpace=wrap;html=1;aspect=fixed;rounded=0;strokeColor=none;strokeWidth=7;fillColor=#A71E6C;fontSize=14;fontColor=#FFFFFF;align=center;" parent="1" vertex="1">
          <mxGeometry x="974.5" y="373" width="8" height="8" as="geometry" />
        </mxCell>
        <mxCell id="zA0Id_x8hM4ihw0cVCXu-12" value="IPFS" style="swimlane;fontStyle=0;horizontal=1;collapsible=0;startSize=31;swimlaneLine=0;swimlaneFillColor=none;fillColor=none;rounded=0;whiteSpace=wrap;html=1;absoluteArcSize=1;arcSize=12;strokeColor=#417CB9;fontColor=#417CB9;verticalAlign=top;align=left;spacingLeft=5;dashed=0;strokeWidth=2;" vertex="1" parent="1">
          <mxGeometry x="216.5" y="439" width="373.5" height="190" as="geometry" />
        </mxCell>
        <mxCell id="zA0Id_x8hM4ihw0cVCXu-25" value="Off-chain Data" style="aspect=fixed;perimeter=ellipsePerimeter;html=1;align=center;shadow=0;dashed=0;fontColor=#4277BB;labelBackgroundColor=#ffffff;fontSize=12;spacingTop=0;image;image=img/lib/ibm/data/data_services.svg;" vertex="1" parent="zA0Id_x8hM4ihw0cVCXu-12">
          <mxGeometry x="158" y="87" width="60" height="60" as="geometry" />
        </mxCell>
        <mxCell id="zA0Id_x8hM4ihw0cVCXu-44" style="edgeStyle=orthogonalEdgeStyle;fontSize=12;html=1;endArrow=classicThin;endFill=1;rounded=0;strokeColor=#0076BE;strokeWidth=2;startArrow=classicThin;startFill=1;" edge="1" parent="1" source="zA0Id_x8hM4ihw0cVCXu-32" target="zA0Id_x8hM4ihw0cVCXu-25">
          <mxGeometry relative="1" as="geometry" />
        </mxCell>
        <mxCell id="zA0Id_x8hM4ihw0cVCXu-32" value="Infura&lt;br&gt;HTTP API" style="aspect=fixed;perimeter=ellipsePerimeter;html=1;align=center;shadow=0;dashed=0;fontColor=#4277BB;labelBackgroundColor=#ffffff;fontSize=12;spacingTop=0;image;image=img/lib/ibm/infrastructure/edge_services.svg;" vertex="1" parent="1">
          <mxGeometry x="376.25" y="413" width="60" height="60" as="geometry" />
        </mxCell>
        <mxCell id="zA0Id_x8hM4ihw0cVCXu-41" style="edgeStyle=orthogonalEdgeStyle;fontSize=12;html=1;endArrow=classicThin;endFill=1;rounded=0;strokeColor=#0076BE;strokeWidth=2;startArrow=classicThin;startFill=1;" edge="1" parent="1" source="T21aQVliIUyU_0U-5JRh-4" target="T21aQVliIUyU_0U-5JRh-7">
          <mxGeometry relative="1" as="geometry">
            <mxPoint x="560" y="382.5" as="sourcePoint" />
          </mxGeometry>
        </mxCell>
        <mxCell id="zA0Id_x8hM4ihw0cVCXu-40" style="edgeStyle=orthogonalEdgeStyle;fontSize=12;html=1;endArrow=classicThin;endFill=1;rounded=0;strokeColor=#0076BE;strokeWidth=2;startArrow=classicThin;startFill=1;entryX=0;entryY=0.5;entryDx=0;entryDy=0;" edge="1" parent="1" source="T21aQVliIUyU_0U-5JRh-4" target="zA0Id_x8hM4ihw0cVCXu-28">
          <mxGeometry relative="1" as="geometry" />
        </mxCell>
        <mxCell id="zA0Id_x8hM4ihw0cVCXu-23" value="The Graph" style="swimlane;fontStyle=0;horizontal=1;collapsible=0;startSize=30;swimlaneLine=0;swimlaneFillColor=none;fillColor=none;rounded=0;whiteSpace=wrap;html=1;absoluteArcSize=1;arcSize=12;strokeColor=#417CB9;fontColor=#417CB9;verticalAlign=top;align=right;spacingLeft=5;dashed=0;strokeWidth=2;" vertex="1" parent="1">
          <mxGeometry x="590" y="160" width="310" height="170" as="geometry" />
        </mxCell>
        <mxCell id="zA0Id_x8hM4ihw0cVCXu-24" value="Indexed &lt;br&gt;On-chain Data" style="aspect=fixed;perimeter=ellipsePerimeter;html=1;align=center;shadow=0;dashed=0;fontColor=#4277BB;labelBackgroundColor=#ffffff;fontSize=12;spacingTop=0;image;image=img/lib/ibm/data/data_services.svg;" vertex="1" parent="zA0Id_x8hM4ihw0cVCXu-23">
          <mxGeometry x="70" y="63" width="60" height="60" as="geometry" />
        </mxCell>
        <mxCell id="zA0Id_x8hM4ihw0cVCXu-42" style="edgeStyle=orthogonalEdgeStyle;fontSize=12;html=1;endArrow=classicThin;endFill=1;rounded=0;strokeColor=#0076BE;strokeWidth=2;startArrow=classicThin;startFill=1;" edge="1" parent="zA0Id_x8hM4ihw0cVCXu-23" source="zA0Id_x8hM4ihw0cVCXu-28" target="zA0Id_x8hM4ihw0cVCXu-24">
          <mxGeometry relative="1" as="geometry" />
        </mxCell>
        <mxCell id="zA0Id_x8hM4ihw0cVCXu-28" value="Apollo&lt;br&gt;GraphQL API" style="aspect=fixed;perimeter=ellipsePerimeter;html=1;align=center;shadow=0;dashed=0;fontColor=#4277BB;labelBackgroundColor=#ffffff;fontSize=12;spacingTop=0;image;image=img/lib/ibm/infrastructure/edge_services.svg;" vertex="1" parent="zA0Id_x8hM4ihw0cVCXu-23">
          <mxGeometry x="-30" y="63" width="60" height="60" as="geometry" />
        </mxCell>
        <mxCell id="zA0Id_x8hM4ihw0cVCXu-54" value="" style="edgeStyle=orthogonalEdgeStyle;rounded=0;orthogonalLoop=1;jettySize=auto;html=1;" edge="1" parent="zA0Id_x8hM4ihw0cVCXu-23" source="T21aQVliIUyU_0U-5JRh-13" target="zA0Id_x8hM4ihw0cVCXu-52">
          <mxGeometry relative="1" as="geometry" />
        </mxCell>
        <mxCell id="T21aQVliIUyU_0U-5JRh-13" value="Event Listener" style="aspect=fixed;perimeter=ellipsePerimeter;html=1;align=center;shadow=0;dashed=0;fontColor=#4277BB;labelBackgroundColor=#ffffff;fontSize=12;spacingTop=0;image;image=img/lib/ibm/blockchain/event_listener.svg;" parent="zA0Id_x8hM4ihw0cVCXu-23" vertex="1">
          <mxGeometry x="270" y="63" width="60" height="60" as="geometry" />
        </mxCell>
        <mxCell id="zA0Id_x8hM4ihw0cVCXu-55" value="" style="edgeStyle=orthogonalEdgeStyle;rounded=0;orthogonalLoop=1;jettySize=auto;html=1;" edge="1" parent="zA0Id_x8hM4ihw0cVCXu-23" source="zA0Id_x8hM4ihw0cVCXu-52" target="zA0Id_x8hM4ihw0cVCXu-24">
          <mxGeometry relative="1" as="geometry" />
        </mxCell>
        <mxCell id="zA0Id_x8hM4ihw0cVCXu-52" value="Indexing&lt;br&gt;Logic" style="aspect=fixed;perimeter=ellipsePerimeter;html=1;align=center;shadow=0;dashed=0;fontColor=#4277BB;labelBackgroundColor=#ffffff;fontSize=12;spacingTop=0;image;image=img/lib/ibm/applications/application_logic.svg;" vertex="1" parent="zA0Id_x8hM4ihw0cVCXu-23">
          <mxGeometry x="170" y="63" width="60" height="60" as="geometry" />
        </mxCell>
      </root>
    </mxGraphModel>
  </diagram>
</mxfile>
